# xmcd CD database file
#
# Track frame offsets:
#	150
#	29667
#	48045
#	82602
#	105845
#	136317
#	171784
#	188252
#	220960
#	238215
#
# Disc length: 3639 seconds
#
# Revision: 0
# Processed by: cddbd v1.5.2PL0 Copyright (c) Steve Scherf et al.
# Submitted via: CDex 1.51
#
DISCID=730e350a
DTITLE=Sweetness - 川上さとみ
DYEAR=2006
DGENRE=Jazz
TTITLE0=Sweetness
TTITLE1=Diamond Memories
TTITLE2=Yesterdays
TTITLE3=Celia
TTITLE4=I Should Care
TTITLE5=Two Face
TTITLE6=Cleopatra's Ream
TTITLE7=Gloriosa
TTITLE8=Majestic
TTITLE9=Remembrances
EXTD=YEAR: 2006
EXTT0=
EXTT1=
EXTT2=
EXTT3=
EXTT4=
EXTT5=
EXTT6=
EXTT7=
EXTT8=
EXTT9=
PLAYORDER=
